<svg width="19" height="20" viewBox="0 0 19 20" fill="none" xmlns="http://www.w3.org/2000/svg">
<path d="M17.4167 9.58366V12.167C17.4167 14.0338 17.4167 14.9673 17.0716 15.6803C16.768 16.3075 16.2835 16.8174 15.6877 17.137C15.0103 17.5003 14.1235 17.5003 12.35 17.5003H6.65004C4.87654 17.5003 3.98979 17.5003 3.3124 17.137C2.71656 16.8174 2.23212 16.3075 1.92852 15.6803C1.58337 14.9673 1.58337 14.0338 1.58337 12.167V7.83366C1.58337 5.96682 1.58337 5.0334 1.92852 4.32036C2.23212 3.69315 2.71656 3.18321 3.3124 2.86364C3.98979 2.50033 4.87654 2.50033 6.65004 2.50033H9.89587M15.0417 6.66699V1.66699M12.6667 4.16699H17.4167" stroke="#AF79FE" stroke-width="1.75" stroke-linecap="round" stroke-linejoin="round"/>
<line x1="6.57495" y1="3" x2="6.57495" y2="17" stroke="#AF79FE" stroke-width="1.75"/>
<path d="M11.4 7.75C11.8833 7.75 12.275 7.35825 12.275 6.875C12.275 6.39175 11.8833 6 11.4 6V7.75ZM11.4 6L1.90002 6V7.75L11.4 7.75V6Z" fill="#AF79FE"/>
</svg>
