<svg width="19" height="20" viewBox="0 0 19 20" fill="none" xmlns="http://www.w3.org/2000/svg">
<path fill-rule="evenodd" clip-rule="evenodd" d="M15.0416 0.791992C15.5248 0.791992 15.9166 1.18374 15.9166 1.66699V3.29199H17.4166C17.8998 3.29199 18.2916 3.68374 18.2916 4.16699C18.2916 4.65024 17.8998 5.04199 17.4166 5.04199H15.9166V6.66699C15.9166 7.15024 15.5248 7.54199 15.0416 7.54199C14.5583 7.54199 14.1666 7.15024 14.1666 6.66699V5.04199H12.6666C12.1833 5.04199 11.7916 4.65024 11.7916 4.16699C11.7916 3.68374 12.1833 3.29199 12.6666 3.29199H14.1666V1.66699C14.1666 1.18374 14.5583 0.791992 15.0416 0.791992ZM6.61121 1.62533L6.64992 1.62533H9.89575C10.379 1.62533 10.7708 2.01708 10.7708 2.50033C10.7708 2.98357 10.379 3.37533 9.89575 3.37533H7.44995V6H11.3999C11.8832 6 12.2749 6.39175 12.2749 6.875C12.2749 7.35825 11.8832 7.75 11.3999 7.75H7.44995L7.44995 16.6253H12.3499C13.2519 16.6253 13.8729 16.6246 14.3548 16.5831C14.8251 16.5427 15.0831 16.4683 15.274 16.3659C15.7019 16.1364 16.0581 15.7656 16.2839 15.2991C16.3887 15.0824 16.4619 14.7938 16.5011 14.2886C16.541 13.7745 16.5416 13.1141 16.5416 12.167V9.58366C16.5416 9.10041 16.9333 8.70866 17.4166 8.70866C17.8998 8.70866 18.2916 9.10041 18.2916 9.58366V12.167V12.2026V12.2027C18.2916 13.1058 18.2916 13.8342 18.2458 14.424C18.1987 15.0306 18.0993 15.5651 17.859 16.0615C17.4776 16.8494 16.8649 17.4985 16.1011 17.9081C15.6147 18.169 15.0906 18.2763 14.5048 18.3267C13.9391 18.3753 13.2426 18.3753 12.3887 18.3753H12.3499H6.64992H6.61112C5.75729 18.3753 5.06077 18.3753 4.49508 18.3267C3.90924 18.2763 3.38518 18.169 2.89871 17.9081C2.13495 17.4985 1.52221 16.8494 1.14081 16.0615C0.900542 15.5651 0.801098 15.0306 0.75402 14.424C0.708238 13.8342 0.708244 13.1058 0.708252 12.2026V12.2026V12.167V7.83366V7.79804V7.79803C0.708244 6.89483 0.708238 6.16645 0.75402 5.57662C0.801098 4.97009 0.900542 4.43551 1.14081 3.93913C1.52221 3.15121 2.13495 2.50218 2.89871 2.09254C3.38518 1.83163 3.90924 1.72434 4.49508 1.67396C5.06079 1.62531 5.75734 1.62531 6.61121 1.62533ZM5.69995 6V3.37818C5.27695 3.38233 4.93567 3.39253 4.64504 3.41752C4.17478 3.45796 3.91678 3.53233 3.72585 3.63473C3.29793 3.86425 2.94179 4.23509 2.71598 4.70159C2.61111 4.91825 2.53798 5.2069 2.49877 5.71204C2.4917 5.80317 2.48586 5.8989 2.48104 6H5.69995ZM2.45826 7.75H5.69995L5.69995 16.6225C5.27695 16.6183 4.93567 16.6081 4.64504 16.5831C4.17478 16.5427 3.91678 16.4683 3.72585 16.3659C3.29793 16.1364 2.94179 15.7656 2.71598 15.2991C2.61111 15.0824 2.53798 14.7938 2.49877 14.2886C2.45887 13.7745 2.45825 13.1141 2.45825 12.167V7.83366C2.45825 7.80552 2.45825 7.77764 2.45826 7.75Z" fill="#A162FF"/>
</svg>
