<svg width="20" height="20" viewBox="0 0 20 20" fill="none" xmlns="http://www.w3.org/2000/svg">
<path d="M10 10.833C10.4602 10.833 10.8333 10.4599 10.8333 9.99967C10.8333 9.53944 10.4602 9.16634 10 9.16634C9.53977 9.16634 9.16667 9.53944 9.16667 9.99967C9.16667 10.4599 9.53977 10.833 10 10.833Z" stroke="#939095" stroke-width="2" stroke-linecap="round" stroke-linejoin="round"/>
<path d="M10 4.99967C10.4602 4.99967 10.8333 4.62658 10.8333 4.16634C10.8333 3.7061 10.4602 3.33301 10 3.33301C9.53977 3.33301 9.16667 3.7061 9.16667 4.16634C9.16667 4.62658 9.53977 4.99967 10 4.99967Z" stroke="#939095" stroke-width="2" stroke-linecap="round" stroke-linejoin="round"/>
<path d="M10 16.6663C10.4602 16.6663 10.8333 16.2932 10.8333 15.833C10.8333 15.3728 10.4602 14.9997 10 14.9997C9.53977 14.9997 9.16667 15.3728 9.16667 15.833C9.16667 16.2932 9.53977 16.6663 10 16.6663Z" stroke="#939095" stroke-width="2" stroke-linecap="round" stroke-linejoin="round"/>
</svg>
